<svg width="63" height="61" viewBox="0 0 63 61" fill="none" xmlns="http://www.w3.org/2000/svg">
<path d="M31.605 37.9482L31.5 38.0572L31.3845 37.9482C26.397 33.2507 23.1 30.1444 23.1 26.9946C23.1 24.8147 24.675 23.1798 26.775 23.1798C28.392 23.1798 29.967 24.2698 30.5235 25.752H32.4765C33.033 24.2698 34.608 23.1798 36.225 23.1798C38.325 23.1798 39.9 24.8147 39.9 26.9946C39.9 30.1444 36.603 33.2507 31.605 37.9482ZM36.225 21C34.398 21 32.6445 21.8828 31.5 23.267C30.3555 21.8828 28.602 21 26.775 21C23.541 21 21 23.6267 21 26.9946C21 31.1035 24.57 34.4714 29.9775 39.5613L31.5 41L33.0225 39.5613C38.43 34.4714 42 31.1035 42 26.9946C42 23.6267 39.459 21 36.225 21Z" fill="white"/>
<rect x="27.1699" y="20" width="14" height="10" rx="5" transform="rotate(45.8034 27.1699 20)" fill="white"/>
<path d="M39.0458 24.1951C37.231 22.4305 34.3293 22.4712 32.5646 24.286L29.2045 27.7417C26.5715 30.4496 26.6323 34.7792 29.3401 37.4122L31.6066 39.616L39.1532 31.8547C41.2387 29.7099 41.1906 26.2806 39.0458 24.1951V24.1951Z" fill="white"/>
</svg>
