<svg width="290" height="170" viewBox="0 0 290 170" fill="none" xmlns="http://www.w3.org/2000/svg">
<path d="M18.0957 168.246H6.93115V108.563L15.4395 104.081H18.0957V168.246ZM50.3857 169.201C47.4805 169.201 44.755 168.647 42.2095 167.541C39.6639 166.406 37.4365 164.898 35.5273 163.017C33.6182 161.107 32.1102 158.908 31.0034 156.417C29.9243 153.9 29.3848 151.243 29.3848 148.449C29.3848 145.101 29.8828 142.002 30.8789 139.152C31.9027 136.274 33.3415 133.784 35.1953 131.681C37.0492 129.578 39.2765 127.946 41.8774 126.784C44.506 125.594 47.4113 124.999 50.5933 124.999C53.4432 124.999 56.0441 125.469 58.396 126.41C60.7479 127.351 62.7677 128.638 64.4556 130.27C66.1434 131.903 67.4438 133.826 68.3569 136.039C69.2977 138.253 69.7681 140.618 69.7681 143.136H40.3418C40.4525 145.488 40.826 147.729 41.4624 149.86C42.0988 151.99 42.9427 153.872 43.9941 155.504C45.0732 157.109 46.3322 158.396 47.771 159.364C49.2375 160.305 50.8423 160.775 52.5854 160.775C54.1073 160.775 55.6014 160.54 57.0679 160.07C58.5343 159.572 59.8763 158.908 61.0938 158.078C62.3112 157.248 63.3626 156.279 64.248 155.172C65.1611 154.066 65.8114 152.876 66.1987 151.603L71.2622 152.433C70.5981 154.73 69.5605 156.902 68.1494 158.949C66.7383 160.969 65.092 162.74 63.2104 164.262C61.3289 165.784 59.2814 166.987 57.0679 167.873C54.8543 168.758 52.627 169.201 50.3857 169.201ZM56.6528 138.737C56.5422 137.492 56.2516 136.357 55.7812 135.333C55.3109 134.282 54.7021 133.383 53.9551 132.636C53.208 131.889 52.3364 131.321 51.3403 130.934C50.3719 130.519 49.3205 130.312 48.186 130.312C47.2729 130.312 46.3737 130.519 45.4883 130.934C44.6305 131.321 43.8558 131.889 43.1641 132.636C42.4723 133.355 41.8774 134.241 41.3794 135.292C40.909 136.316 40.6047 137.464 40.4663 138.737H56.6528ZM101.934 146.332C100.329 146.885 98.7793 147.549 97.2852 148.324C95.8187 149.071 94.5044 149.915 93.3423 150.856C92.2078 151.797 91.2948 152.82 90.603 153.927C89.939 155.006 89.6069 156.168 89.6069 157.414C89.6069 158.825 90.0496 159.931 90.9351 160.734C91.8205 161.536 93.0103 161.938 94.5044 161.938C95.8049 161.938 97.0223 161.647 98.1567 161.066C99.2912 160.457 100.55 159.627 101.934 158.576V146.332ZM78.3179 136.537C78.7606 134.766 79.5215 133.161 80.6006 131.723C81.6797 130.256 83.0078 129.025 84.585 128.029C86.1621 127.005 87.9468 126.216 89.939 125.663C91.9588 125.11 94.1447 124.833 96.4966 124.833C99.4019 124.833 101.906 125.11 104.009 125.663C106.112 126.216 107.841 127.005 109.197 128.029C110.553 129.025 111.549 130.242 112.185 131.681C112.849 133.092 113.181 134.683 113.181 136.454V160.775C113.181 162.519 113.735 163.999 114.841 165.216C115.976 166.406 117.553 167.416 119.573 168.246H104.922C104.59 168.246 104.272 168.122 103.967 167.873C103.663 167.624 103.372 167.305 103.096 166.918C102.819 166.503 102.57 166.06 102.349 165.59C102.155 165.119 102.003 164.663 101.892 164.22C100.785 164.94 99.7892 165.604 98.9038 166.212C98.0184 166.793 97.133 167.292 96.2476 167.707C95.3898 168.122 94.4767 168.44 93.5083 168.661C92.5399 168.91 91.4193 169.035 90.1465 169.035C88.3203 169.035 86.674 168.758 85.2075 168.205C83.741 167.651 82.4959 166.89 81.4722 165.922C80.4484 164.926 79.6598 163.764 79.1064 162.436C78.5807 161.08 78.3179 159.613 78.3179 158.036C78.3179 156.376 78.6222 154.896 79.231 153.595C79.8397 152.267 80.6698 151.077 81.7212 150.026C82.8003 148.947 84.0731 147.978 85.5396 147.121C87.006 146.263 88.5832 145.488 90.271 144.796C91.9865 144.077 93.785 143.413 95.6665 142.804C97.548 142.195 99.4434 141.601 101.353 141.02H101.934V136.869C101.934 135.513 101.768 134.365 101.436 133.424C101.131 132.456 100.688 131.681 100.107 131.1C99.554 130.491 98.8761 130.062 98.0737 129.813C97.2713 129.537 96.3721 129.398 95.376 129.398C94.2139 129.398 93.1763 129.592 92.2632 129.979C91.3778 130.367 90.603 130.893 89.939 131.557C89.3026 132.221 88.7769 132.982 88.3618 133.839C87.9744 134.697 87.6978 135.596 87.5317 136.537H78.3179ZM154.021 115.868C153.855 115.287 153.62 114.595 153.315 113.793C153.039 112.991 152.624 112.216 152.07 111.469C151.517 110.722 150.784 110.099 149.871 109.601C148.985 109.075 147.851 108.812 146.467 108.812C145.056 108.812 143.949 109.394 143.147 110.556C142.372 111.69 141.985 113.419 141.985 115.744V125.746H152.568V130.934H141.985V168.246H130.779V130.934H122.478V125.746H130.779V121.015C130.779 118.829 131.194 116.726 132.024 114.706C132.854 112.659 134.016 110.846 135.51 109.269C137.004 107.692 138.775 106.433 140.823 105.492C142.87 104.551 145.111 104.081 147.546 104.081C149.483 104.081 151.171 104.372 152.61 104.953C154.049 105.506 155.28 106.198 156.304 107.028C157.355 107.858 158.227 108.743 158.918 109.684C159.61 110.597 160.177 111.4 160.62 112.091L154.021 115.868ZM159.873 111.967H171.992V168.246H159.873V111.967ZM213.123 139.235C213.123 138.156 212.984 137.201 212.708 136.371C212.431 135.513 212.043 134.808 211.545 134.254C211.075 133.673 210.535 133.244 209.927 132.968C209.318 132.663 208.682 132.511 208.018 132.511C206.745 132.511 205.223 132.94 203.452 133.798C201.681 134.656 199.938 135.859 198.223 137.409V168.246H186.934V129.357L195.566 124.875H198.223V130.146C200.879 128.236 203.341 126.908 205.61 126.161C207.907 125.386 210.107 124.999 212.209 124.999C213.842 124.999 215.391 125.345 216.858 126.037C218.324 126.701 219.597 127.614 220.676 128.776C221.783 129.938 222.655 131.308 223.291 132.885C223.955 134.434 224.287 136.094 224.287 137.865V168.246H213.123V139.235ZM235.784 163.432C235.784 162.657 235.922 161.924 236.199 161.232C236.503 160.513 236.918 159.904 237.444 159.406C237.97 158.88 238.578 158.465 239.27 158.161C239.962 157.856 240.709 157.704 241.511 157.704C242.286 157.704 243.019 157.856 243.711 158.161C244.43 158.465 245.053 158.88 245.579 159.406C246.132 159.904 246.561 160.513 246.865 161.232C247.17 161.924 247.322 162.657 247.322 163.432C247.322 164.234 247.17 164.981 246.865 165.673C246.561 166.365 246.132 166.959 245.579 167.458C245.053 167.956 244.43 168.343 243.711 168.62C243.019 168.924 242.286 169.076 241.511 169.076C240.709 169.076 239.962 168.924 239.27 168.62C238.578 168.343 237.97 167.956 237.444 167.458C236.918 166.959 236.503 166.365 236.199 165.673C235.922 164.981 235.784 164.234 235.784 163.432ZM235.784 135.292C235.784 134.517 235.922 133.784 236.199 133.092C236.503 132.373 236.918 131.764 237.444 131.266C237.97 130.74 238.578 130.325 239.27 130.021C239.962 129.717 240.709 129.564 241.511 129.564C242.286 129.564 243.019 129.717 243.711 130.021C244.43 130.325 245.053 130.74 245.579 131.266C246.132 131.764 246.561 132.373 246.865 133.092C247.17 133.784 247.322 134.517 247.322 135.292C247.322 136.094 247.17 136.841 246.865 137.533C246.561 138.225 246.132 138.834 245.579 139.359C245.053 139.857 244.43 140.259 243.711 140.563C243.019 140.84 242.286 140.978 241.511 140.978C240.709 140.978 239.962 140.84 239.27 140.563C238.578 140.259 237.97 139.857 237.444 139.359C236.918 138.834 236.503 138.225 236.199 137.533C235.922 136.841 235.784 136.094 235.784 135.292Z" fill="#15719E"/>
<path d="M181.399 0C185.419 0 188.678 3.25861 188.678 7.2783V65.3792C188.678 70.6404 192.943 74.9055 198.204 74.9055H246.844C251.159 74.9055 254.657 78.4038 254.657 82.7191C254.657 86.9267 251.325 90.3787 247.12 90.5277L190.798 92.523C179.67 92.9172 170.577 83.7252 171.091 72.6019L174.129 6.94197C174.309 3.0572 177.51 0 181.399 0Z" fill="#15719E"/>
<path d="M146.769 7.73481C146.229 5.98549 147.193 4.07887 148.922 3.47625C150.65 2.87364 152.49 3.80322 153.03 5.55254L171.676 65.9656C172.216 67.7149 171.253 69.6215 169.524 70.2241C167.795 70.8268 165.956 69.8972 165.416 68.1479L146.769 7.73481Z" fill="#15719E"/>
<path d="M99.3028 56.4584C97.5625 55.6573 96.7379 53.5696 97.4611 51.7954C98.1843 50.0213 100.181 49.2325 101.922 50.0337L155.725 74.8018C157.465 75.603 158.29 77.6907 157.566 79.4648C156.843 81.239 154.846 82.0278 153.106 81.2266L99.3028 56.4584Z" fill="#15719E"/>
<path d="M115.695 25.4636C114.476 24.0426 114.578 21.8348 115.923 20.5325C117.268 19.2301 119.346 19.3262 120.564 20.7472L161.525 68.5095C162.744 69.9305 162.642 72.1383 161.297 73.4406C159.952 74.743 157.874 74.6469 156.656 73.2259L115.695 25.4636Z" fill="#15719E"/>
<path d="M97.4572 91.4785C95.5237 91.4785 93.9564 89.9111 93.9564 87.9777C93.9564 86.0442 95.5237 84.4768 97.4572 84.4768L151.757 84.4768C153.69 84.4768 155.258 86.0442 155.258 87.9777C155.258 89.9111 153.69 91.4785 151.757 91.4785L97.4572 91.4785Z" fill="#15719E"/>
</svg>
